<svg width="4018" height="1200" viewBox="0 0 4018 1200" fill="none" xmlns="http://www.w3.org/2000/svg">
<path d="M1199.9 600C1199.9 931.371 931.291 1200 599.948 1200C268.606 1200 0 931.371 0 600C0 268.629 268.606 0 599.948 0C931.291 0 1199.9 268.629 1199.9 600Z" fill="#2360F6"/>
<path d="M792.256 822.739L871.142 776.428L728.804 556.024L665.353 593.759L791.399 822.739H792.256ZM500.721 880.198L580.465 924.793L703.081 693.241L638.772 657.221L501.579 880.198H500.721ZM308.651 748.127L571.89 736.978L570.175 664.082L308.651 656.364V748.127ZM890.006 544.018L889.149 453.112L625.91 464.261V538.015L889.149 544.018H890.006ZM404.686 376.786L326.658 423.096L467.281 644.357L529.875 607.48L404.686 376.786ZM695.364 321.899L616.478 276.446L494.719 507.999L557.313 544.876L694.506 321.899H695.364Z" fill="white"/>
<path d="M1566.28 742.183H1696.69V781.737H1517.64V409.176H1566.28V742.183Z" fill="white"/>
<path d="M1876.08 786.548C1848.65 786.548 1823.7 780.312 1801.26 767.84C1779.16 755.367 1761.7 737.728 1748.88 714.922C1736.41 691.759 1730.17 665.033 1730.17 634.744C1730.17 604.811 1736.58 578.441 1749.41 555.635C1762.6 532.472 1780.41 514.833 1802.86 502.717C1825.31 490.245 1850.43 484.009 1878.22 484.009C1906.01 484.009 1931.13 490.245 1953.58 502.717C1976.03 514.833 1993.67 532.294 2006.49 555.1C2019.68 577.906 2026.27 604.454 2026.27 634.744C2026.27 665.033 2019.5 691.759 2005.96 714.922C1992.78 737.728 1974.78 755.367 1951.98 767.84C1929.17 780.312 1903.88 786.548 1876.08 786.548ZM1876.08 743.786C1893.54 743.786 1909.93 739.688 1925.25 731.492C1940.58 723.296 1952.87 711.002 1962.13 694.61C1971.75 678.218 1976.56 658.263 1976.56 634.744C1976.56 611.225 1971.93 591.269 1962.67 574.877C1953.4 558.485 1941.29 546.37 1926.32 538.53C1911.36 530.334 1895.15 526.236 1877.69 526.236C1859.87 526.236 1843.48 530.334 1828.51 538.53C1813.91 546.37 1802.15 558.485 1793.24 574.877C1784.33 591.269 1779.88 611.225 1779.88 634.744C1779.88 658.619 1784.15 678.753 1792.7 695.145C1801.61 711.537 1813.37 723.831 1827.98 732.027C1842.59 739.866 1858.62 743.786 1876.08 743.786Z" fill="white"/>
<path d="M2193.91 786.548C2171.46 786.548 2151.33 782.806 2133.51 775.323C2115.7 767.483 2101.62 756.793 2091.29 743.252C2080.96 729.354 2075.25 713.497 2074.19 695.679H2124.43C2125.85 710.289 2132.62 722.227 2144.74 731.492C2157.21 740.757 2173.42 745.39 2193.37 745.39C2211.9 745.39 2226.51 741.292 2237.2 733.096C2247.89 724.9 2253.23 714.566 2253.23 702.094C2253.23 689.265 2247.53 679.822 2236.13 673.764C2224.73 667.35 2207.09 661.114 2183.22 655.056C2161.48 649.354 2143.67 643.653 2129.77 637.951C2116.23 631.893 2104.47 623.163 2094.5 611.759C2084.87 600 2080.06 584.677 2080.06 565.791C2080.06 550.824 2084.52 537.105 2093.43 524.632C2102.33 512.16 2114.98 502.361 2131.37 495.234C2147.76 487.751 2166.47 484.009 2187.49 484.009C2219.92 484.009 2246.11 492.205 2266.06 508.597C2286.02 524.989 2296.7 547.439 2298.13 575.947H2249.49C2248.42 560.624 2242.19 548.33 2230.79 539.065C2219.74 529.8 2204.78 525.167 2185.89 525.167C2168.43 525.167 2154.53 528.909 2144.2 536.392C2133.87 543.875 2128.7 553.675 2128.7 565.791C2128.7 575.412 2131.73 583.43 2137.79 589.844C2144.2 595.902 2152.04 600.891 2161.3 604.811C2170.93 608.374 2184.11 612.472 2200.86 617.105C2221.88 622.806 2238.98 628.508 2252.17 634.209C2265.35 639.555 2276.57 647.751 2285.84 658.797C2295.46 669.844 2300.45 684.276 2300.8 702.094C2300.8 718.129 2296.35 732.561 2287.44 745.39C2278.53 758.218 2265.88 768.374 2249.49 775.857C2233.46 782.984 2214.93 786.548 2193.91 786.548Z" fill="white"/>
<path d="M2428.79 528.909V701.559C2428.79 715.813 2431.82 725.969 2437.87 732.027C2443.93 737.728 2454.44 740.579 2469.41 740.579H2505.22V781.737H2461.39C2434.31 781.737 2414 775.501 2400.46 763.029C2386.92 750.557 2380.15 730.067 2380.15 701.559V528.909H2342.2V488.82H2380.15V415.056H2428.79V488.82H2505.22V528.909H2428.79Z" fill="white"/>
<path d="M2612.79 742.183H2743.2V781.737H2564.15V409.176H2612.79V742.183Z" fill="white"/>
<path d="M2819.97 441.247C2810.71 441.247 2802.87 438.04 2796.45 431.626C2790.04 425.212 2786.83 417.372 2786.83 408.107C2786.83 398.842 2790.04 391.002 2796.45 384.588C2802.87 378.174 2810.71 374.967 2819.97 374.967C2828.88 374.967 2836.36 378.174 2842.42 384.588C2848.83 391.002 2852.04 398.842 2852.04 408.107C2852.04 417.372 2848.83 425.212 2842.42 431.626C2836.36 438.04 2828.88 441.247 2819.97 441.247ZM2843.49 488.82V781.737H2794.85V488.82H2843.49Z" fill="white"/>
<path d="M3069.09 483.474C3104.72 483.474 3133.58 494.343 3155.67 516.08C3177.76 537.461 3188.81 568.463 3188.81 609.087V781.737H3140.7V616.036C3140.7 586.815 3133.4 564.543 3118.79 549.22C3104.18 533.541 3084.23 525.702 3058.93 525.702C3033.28 525.702 3012.79 533.719 2997.47 549.755C2982.5 565.791 2975.02 589.131 2975.02 619.777V781.737H2926.38V488.82H2975.02V530.512C2984.64 515.546 2997.64 503.964 3014.03 495.768C3030.78 487.572 3049.13 483.474 3069.09 483.474Z" fill="white"/>
<path d="M3431.81 781.737L3316.89 652.383V781.737H3268.26V386.192H3316.89V618.708L3429.67 488.82H3497.55L3359.65 634.744L3498.08 781.737H3431.81Z" fill="white"/>
<path d="M3810.56 624.053C3810.56 633.318 3810.03 643.118 3808.96 653.452H3574.86C3576.64 682.316 3586.44 704.944 3604.25 721.336C3622.43 737.372 3644.34 745.39 3669.99 745.39C3691.02 745.39 3708.48 740.579 3722.37 730.958C3736.63 720.98 3746.6 707.795 3752.3 691.403H3804.68C3796.84 719.555 3781.16 742.539 3757.65 760.356C3734.13 777.817 3704.91 786.548 3669.99 786.548C3642.2 786.548 3617.26 780.312 3595.17 767.84C3573.43 755.367 3556.33 737.728 3543.86 714.922C3531.39 691.759 3525.15 665.033 3525.15 634.744C3525.15 604.454 3531.21 577.906 3543.32 555.1C3555.44 532.294 3572.36 514.833 3594.1 502.717C3616.19 490.245 3641.49 484.009 3669.99 484.009C3697.79 484.009 3722.37 490.067 3743.75 502.183C3765.13 514.298 3781.52 531.047 3792.92 552.428C3804.68 573.452 3810.56 597.327 3810.56 624.053ZM3760.32 613.898C3760.32 595.367 3756.22 579.51 3748.03 566.325C3739.83 552.784 3728.61 542.628 3714.36 535.857C3700.46 528.731 3684.96 525.167 3667.86 525.167C3643.27 525.167 3622.25 533.007 3604.79 548.686C3587.68 564.365 3577.89 586.102 3575.39 613.898H3760.32Z" fill="white"/>
<path d="M3923.4 536.392C3931.95 519.644 3944.06 506.637 3959.74 497.372C3975.78 488.107 3995.2 483.474 4018 483.474V533.719H4005.17C3950.66 533.719 3923.4 563.296 3923.4 622.45V781.737H3874.76V488.82H3923.4V536.392Z" fill="white"/>
</svg>
